<?xml version="1.0" standalone="no"?>
<!DOCTYPE svg PUBLIC "-//W3C//DTD SVG 20010904//EN"
 "http://www.w3.org/TR/2001/REC-SVG-20010904/DTD/svg10.dtd">
<svg version="1.0" xmlns="http://www.w3.org/2000/svg"
 width="512.000000pt" height="512.000000pt" viewBox="0 0 512.000000 512.000000"
 preserveAspectRatio="xMidYMid meet">
<g transform="translate(0.000000,512.000000) scale(0.100000,-0.100000)"
fill="#000000" stroke="none">
<path d="M2255 4690 c-59 -30 -80 -64 -80 -130 1 -66 28 -110 84 -134 32 -13
272 -90 361 -114 86 -24 754 -233 759 -237 2 -3 -668 -5 -1490 -6 -822 0
-1504 -2 -1517 -5 -173 -32 -323 -175 -361 -345 -5 -24 -10 -171 -11 -326 l-1
-283 606 0 605 0 0 101 c0 119 18 163 80 198 48 27 92 27 142 -1 61 -35 78
-77 78 -198 l0 -100 1805 0 1806 0 -1 283 c-1 306 -7 353 -59 447 -34 62 -117
143 -177 173 -83 42 -148 53 -309 55 l-150 2 -245 76 c-135 42 -265 82 -290
89 -25 7 -142 43 -260 80 -118 36 -264 81 -325 100 -470 144 -621 190 -765
235 -206 64 -233 67 -285 40z"/>
<path d="M0 1822 c0 -673 3 -1007 11 -1048 16 -87 56 -161 124 -229 63 -63
124 -98 210 -121 41 -11 434 -14 2210 -14 2338 0 2204 -3 2322 52 62 29 163
130 192 193 52 112 50 69 51 1147 l0 1008 -2560 0 -2560 0 0 -988z m1575 614
c307 -103 503 -380 490 -696 -4 -114 -10 -145 -41 -229 -82 -219 -272 -385
-501 -440 -358 -85 -716 116 -840 474 -24 71 -27 94 -27 210 0 107 4 143 23
205 77 251 278 437 536 495 97 22 263 13 360 -19z m2815 -144 c39 -21 80 -89
80 -135 0 -43 -37 -102 -80 -126 -38 -21 -41 -21 -866 -21 -821 0 -828 0 -871
21 -103 50 -110 185 -13 253 l35 25 840 1 c794 0 842 -1 875 -18z m4 -805 c43
-25 76 -77 76 -121 0 -49 -36 -110 -79 -134 l-39 -22 -826 0 c-722 0 -830 2
-864 15 -97 39 -120 164 -45 243 41 43 26 42 903 42 l835 0 39 -23z"/>
<path d="M1250 2155 c-48 -13 -137 -62 -167 -92 -85 -86 -124 -172 -129 -286
-11 -241 180 -433 421 -423 155 7 274 82 347 220 165 312 -127 672 -472 581z"/>
</g>
</svg>
